<svg width="258" height="75" viewBox="0 0 258 75" fill="none" xmlns="http://www.w3.org/2000/svg">
<path d="M51.6009 20.1814L28.2386 73.5491H23.3365L0 20.1814H13.3302L30.9132 60.7313L48.5908 20.1814H51.6009ZM57.5479 19.7293L70.2288 19.6518V73.5491H57.5479V19.7293ZM123.618 21.8821L93.5653 71.3963H123.412V73.5491H79.6072V71.8268L109.652 22.3127H81.2069V20.1599H123.618V21.8821ZM172.433 21.8821L142.375 71.3963H172.214V73.5491H128.417V71.8268L158.471 22.3127H130.017V20.1599H172.433V21.8821ZM181.708 22.2007L194.389 19.6389V73.5491H181.704L181.708 22.2007ZM194.608 13.5336L181.502 16.1815V6.27868L194.608 3.65658V13.5336ZM253.949 63.3879H256.4C253.098 70.1132 244.253 74.5824 234.238 74.5824C216.65 74.5824 204.292 62.5268 204.292 46.8372C204.292 30.9367 216.651 19.0964 232.105 19.0964C247.344 19.0964 258 30.5105 258 45.4508H217.403V45.5628C217.403 62.5268 224.859 71.9172 237.33 71.9172C244.364 71.9345 250.862 68.6278 253.954 63.3965L253.949 63.3879ZM217.399 43.3282H245.749C245.431 29.7785 240.206 21.2406 232.109 21.2406C223.69 21.2492 218.039 30.2134 217.403 43.3368L217.399 43.3282ZM63.7142 0.582397C62.3457 0.582397 61.0081 0.988699 59.8703 1.74992C58.7325 2.51115 57.8457 3.5931 57.322 4.85897C56.7983 6.12484 56.6613 7.51776 56.9283 8.8616C57.1953 10.2054 57.8542 11.4398 58.8218 12.4087C59.7894 13.3775 61.0222 14.0373 62.3644 14.3046C63.7065 14.5719 65.0976 14.4348 66.3619 13.9104C67.6261 13.3861 68.7067 12.4981 69.4669 11.3589C70.2272 10.2196 70.633 8.88024 70.633 7.51008C70.6307 5.67498 69.9013 3.91576 68.605 2.61855C67.3086 1.32135 65.5512 0.59215 63.7185 0.59101L63.7142 0.582397Z" fill="white"/>
</svg>
