<svg width="42" height="43" viewBox="0 0 42 43" fill="none" xmlns="http://www.w3.org/2000/svg">
<path d="M17.6748 42.8077V28.0515H12.3458V21.938H17.6748V17.2842C17.6748 11.9801 20.8204 9.06068 25.6036 9.06068C27.1822 9.08338 28.757 9.22346 30.315 9.4798V14.6683H27.6577C27.2062 14.6104 26.7476 14.655 26.3155 14.7989C25.8835 14.9427 25.4889 15.1822 25.161 15.4998C24.833 15.8173 24.5799 16.2047 24.4204 16.6336C24.2609 17.0624 24.1989 17.5218 24.2391 17.978V21.938H30.1139L29.1802 28.0515H24.2821V42.8077C29.5018 41.9767 34.2181 39.1961 37.4902 35.0207C40.7623 30.8453 42.3496 25.5821 41.9353 20.2812C41.5211 14.9803 39.1358 10.0314 35.2553 6.42195C31.3749 2.81245 26.2846 0.807701 21 0.807701C15.7154 0.807701 10.6251 2.81245 6.74468 6.42195C2.86422 10.0314 0.478901 14.9803 0.064656 20.2812C-0.349589 25.5821 1.23769 30.8453 4.50979 35.0207C7.78189 39.1961 12.4982 41.9767 17.7179 42.8077H17.6748Z" fill="white"/>
</svg>
