<svg width="42" height="43" viewBox="0 0 42 43" fill="none" xmlns="http://www.w3.org/2000/svg">
<path d="M31.3563 22.9424H25.697C25.7245 22.5639 25.8219 22.1938 25.9843 21.8508C26.1348 21.5355 26.3389 21.2488 26.5875 21.0033C26.8371 20.7677 27.1297 20.5824 27.4494 20.4575C27.9467 20.2632 28.4884 20.2113 29.0136 20.3077C29.5388 20.4041 30.0268 20.645 30.4227 21.0033C30.9734 21.5043 31.3082 22.1995 31.3563 22.9424ZM18.041 26.8351C18.2728 26.7391 18.4829 26.5975 18.6587 26.4185C18.8254 26.2305 18.9612 26.0172 19.0609 25.7865C19.158 25.5446 19.2068 25.2859 19.2045 25.0252C19.2069 24.7552 19.1582 24.4871 19.0609 24.2352C18.9762 24.0021 18.855 23.7839 18.7018 23.5888C18.5486 23.4061 18.3575 23.2591 18.1416 23.1579C17.9242 23.0462 17.682 22.9919 17.4377 22.9999H12.9131V26.9787H17.2941C17.5503 26.9826 17.8045 26.9337 18.041 26.8351ZM18.1129 20.1559C18.2954 19.9664 18.4358 19.7405 18.5249 19.4929C18.614 19.2454 18.6498 18.9818 18.6299 18.7195C18.6496 18.4606 18.6178 18.2004 18.5365 17.9539C18.4551 17.7074 18.3258 17.4794 18.1559 17.2831C18.0052 17.1173 17.821 16.9854 17.6155 16.8963C17.4099 16.8071 17.1878 16.7627 16.9637 16.766H12.9131V20.5868H16.8345C17.293 20.6338 17.7518 20.4998 18.1129 20.2133V20.1559ZM0 21.8077C0 17.6543 1.23163 13.5942 3.53913 10.1407C5.84664 6.68731 9.12639 3.99567 12.9636 2.40623C16.8009 0.816793 21.0233 0.400933 25.0969 1.21122C29.1705 2.02151 32.9123 4.02156 35.8492 6.95846C38.7861 9.89537 40.7862 13.6372 41.5965 17.7108C42.4068 21.7844 41.9909 26.0068 40.4015 29.8441C38.812 33.6813 36.1204 36.9611 32.667 39.2686C29.2135 41.5761 25.1534 42.8077 21 42.8077C15.4305 42.8077 10.089 40.5952 6.15076 36.657C2.2125 32.7187 0 27.3773 0 21.8077ZM24.8926 16.8522H32.1463V15.0567H24.8926V16.8522ZM22.8242 23.9192C22.8188 24.6472 22.9555 25.3693 23.2264 26.0451C23.4814 26.7097 23.867 27.3165 24.3604 27.8296C24.8538 28.3428 25.445 28.7519 26.0992 29.0327C26.848 29.3329 27.6482 29.4841 28.4549 29.478C29.553 29.505 30.637 29.2265 31.5862 28.6736C32.4097 28.2029 33.0747 27.4979 33.4966 26.6483L31.1121 25.9876C30.9159 26.4467 30.5653 26.8227 30.121 27.0505C29.6426 27.3174 29.1032 27.456 28.5554 27.4527C28.2021 27.4546 27.8515 27.3913 27.5212 27.266C27.1967 27.1398 26.8957 26.9602 26.6306 26.7345C26.3693 26.4936 26.155 26.2062 25.9986 25.887C25.8231 25.5319 25.7159 25.147 25.6826 24.7523H34.0568C34.0732 24.6139 34.0732 24.4741 34.0568 24.3357C34.1662 23.1766 33.9107 22.0122 33.3262 21.0053C32.7416 19.9984 31.857 19.1992 30.7961 18.7195C30.0466 18.4034 29.2395 18.2469 28.4261 18.2598C27.6085 18.2514 26.7976 18.4078 26.0417 18.7195C25.3715 18.9956 24.7648 19.4055 24.2585 19.9242C23.7522 20.4428 23.357 21.0593 23.0971 21.7359C22.8753 22.4413 22.7828 23.1809 22.8242 23.9192ZM9.96853 29.478H17.2797C17.9161 29.4817 18.5497 29.3947 19.1614 29.2195C19.7188 29.0646 20.2441 28.8117 20.7127 28.4726C21.171 28.1498 21.542 27.7184 21.7927 27.2171C22.0434 26.7157 22.1658 26.16 22.1491 25.5998C22.186 24.7 21.9178 23.8142 21.3878 23.0861C20.8698 22.4133 20.1418 21.933 19.3194 21.7215C20.0048 21.436 20.5758 20.9307 20.9425 20.2851C21.3109 19.6582 21.5043 18.9439 21.5027 18.2167C21.5034 17.7276 21.4209 17.2418 21.2585 16.7804C21.0983 16.3334 20.8654 15.916 20.5691 15.5451C20.2701 15.1765 19.8985 14.8734 19.4774 14.6545C19.035 14.4212 18.5411 14.3026 18.041 14.3098H9.95416L9.96853 29.478Z" fill="white"/>
</svg>
