<svg width="42" height="43" viewBox="0 0 42 43" fill="none" xmlns="http://www.w3.org/2000/svg">
<path d="M25.9234 11.192H16.1053C14.7601 11.192 13.4698 11.7357 12.5173 12.7038C11.5648 13.6719 11.0277 14.9854 11.0239 16.3565V26.3781C11.0277 27.7491 11.5648 29.0627 12.5173 30.0308C13.4698 30.9989 14.7601 31.5425 16.1053 31.5425H25.9234C27.2686 31.5425 28.5589 30.9989 29.5114 30.0308C30.4639 29.0627 31.001 27.7491 31.0048 26.3781V16.3565C31.001 14.9854 30.4639 13.6719 29.5114 12.7038C28.5589 11.7357 27.2686 11.192 25.9234 11.192ZM21.1148 27.5485C19.9127 27.5514 18.7368 27.1905 17.7361 26.5116C16.7354 25.8327 15.955 24.8664 15.4936 23.735C15.0323 22.6036 14.9109 21.358 15.1447 20.1562C15.3785 18.9544 15.9571 17.8504 16.8071 16.984C17.6571 16.1177 18.7403 15.5279 19.9195 15.2896C21.0986 15.0513 22.3206 15.1751 23.4307 15.6453C24.5407 16.1155 25.4889 16.911 26.155 17.9309C26.821 18.9509 27.1751 20.1494 27.1722 21.3746C27.1685 23.0108 26.5291 24.5789 25.3939 25.7359C24.2587 26.8929 22.7202 27.5446 21.1148 27.5485ZM27.5311 16.2541C27.2472 16.2541 26.9697 16.1682 26.7336 16.0075C26.4976 15.8467 26.3136 15.6182 26.205 15.3509C26.0963 15.0836 26.0679 14.7894 26.1233 14.5056C26.1787 14.2218 26.3154 13.9611 26.5161 13.7565C26.7169 13.5519 26.9726 13.4126 27.2511 13.3561C27.5295 13.2997 27.8181 13.3287 28.0804 13.4394C28.3427 13.5501 28.5669 13.7376 28.7246 13.9782C28.8823 14.2188 28.9665 14.5017 28.9665 14.791C28.9665 15.1791 28.8153 15.5512 28.5461 15.8255C28.2769 16.0999 27.9118 16.2541 27.5311 16.2541ZM21.0143 5.00242e-06C16.8603 -0.00288899 12.7988 1.24995 9.34347 3.60007C5.88815 5.9502 3.19429 9.29201 1.60265 13.2028C0.0110071 17.1136 -0.406893 21.4176 0.401774 25.5705C1.21044 29.7235 3.20935 33.5386 6.14568 36.5335C9.08201 39.5283 12.8238 41.5683 16.8978 42.3954C20.9718 43.2224 25.1949 42.7994 29.033 41.1798C32.8711 39.5602 36.1517 36.8169 38.4599 33.2967C40.768 29.7765 42 25.6377 42 21.4038C42.0019 18.5937 41.4605 15.8108 40.4067 13.214C39.3529 10.6173 37.8074 8.25765 35.8585 6.26993C33.9096 4.2822 31.5956 2.70537 29.0485 1.62955C26.5015 0.553728 23.7714 4.34507e-06 21.0143 5.00242e-06ZM33.3158 26.3342C33.312 28.3313 32.5319 30.2455 31.1464 31.6576C29.7609 33.0698 27.8829 33.8648 25.9234 33.8687H16.1053C14.1458 33.8648 12.2678 33.0698 10.8823 31.6576C9.49677 30.2455 8.71671 28.3313 8.71292 26.3342V16.3126C8.71671 14.3155 9.49677 12.4013 10.8823 10.9891C12.2678 9.57697 14.1458 8.78194 16.1053 8.77807H25.9234C27.8829 8.78194 29.7609 9.57697 31.1464 10.9891C32.5319 12.4013 33.312 14.3155 33.3158 16.3126V26.3342ZM24.9904 21.3307C24.9904 22.1155 24.7619 22.8826 24.3338 23.5349C23.9058 24.1872 23.2974 24.6954 22.5858 24.995C21.8741 25.2947 21.0912 25.3723 20.3363 25.2182C19.5813 25.064 18.8882 24.6849 18.3448 24.129C17.8013 23.573 17.432 22.8652 17.2835 22.0952C17.1351 21.3251 17.2141 20.5275 17.5108 19.8033C17.8074 19.0791 18.3082 18.4609 18.9498 18.027C19.5914 17.5931 20.3449 17.363 21.1148 17.3659C21.6286 17.3659 22.1374 17.4699 22.6113 17.6721C23.0853 17.8743 23.5152 18.1705 23.8758 18.5435C24.2364 18.9165 24.5207 19.3589 24.7121 19.8449C24.9034 20.331 24.998 20.851 24.9904 21.3746V21.3307Z" fill="white"/>
</svg>
