<svg width="42" height="43" viewBox="0 0 42 43" fill="none" xmlns="http://www.w3.org/2000/svg">
<path d="M21.0144 5.00233e-06C16.8603 -0.00288899 12.7988 1.24997 9.34347 3.60009C5.88815 5.95022 3.19431 9.29203 1.60266 13.2028C0.0110233 17.1136 -0.406899 21.4177 0.401769 25.5706C1.21044 29.7235 3.20936 33.5386 6.14569 36.5335C9.08202 39.5283 12.8238 41.5683 16.8978 42.3954C20.9718 43.2224 25.195 42.7994 29.033 41.1798C32.8711 39.5602 36.1517 36.8169 38.4599 33.2967C40.768 29.7766 42 25.6378 42 21.4039C42.0019 18.5938 41.4605 15.8108 40.4067 13.2141C39.3529 10.6173 37.8074 8.25767 35.8585 6.26995C33.9096 4.28223 31.5956 2.7054 29.0485 1.62957C26.5015 0.55375 23.7714 4.34498e-06 21.0144 5.00233e-06V5.00233e-06ZM16.2775 30.7232H12.201V17.4098H16.2775V30.7232ZM14.2392 15.5957C13.7736 15.5957 13.3185 15.455 12.9314 15.1914C12.5443 14.9277 12.2425 14.553 12.0644 14.1145C11.8862 13.6761 11.8396 13.1937 11.9304 12.7283C12.0212 12.2629 12.2454 11.8353 12.5747 11.4998C12.9039 11.1642 13.3233 10.9357 13.78 10.8431C14.2366 10.7506 14.7099 10.7981 15.1401 10.9797C15.5702 11.1613 15.9379 11.4688 16.1966 11.8634C16.4552 12.2579 16.5933 12.7218 16.5933 13.1964C16.5952 13.512 16.5356 13.8249 16.418 14.1168C16.3004 14.4088 16.127 14.6741 15.9081 14.8973C15.6891 15.1205 15.4288 15.2971 15.1423 15.417C14.8559 15.5369 14.5489 15.5976 14.2392 15.5957V15.5957ZM31.4641 30.7232H27.4019V24.2567C27.4019 22.7059 27.4019 20.7162 25.2919 20.7162C23.1818 20.7162 22.866 22.3987 22.866 24.1397V30.7232H18.8038V17.4098H22.6938V19.2386C23.087 18.5616 23.6516 18.0048 24.3283 17.6265C25.0051 17.2481 25.7692 17.0621 26.5407 17.088C30.6459 17.088 31.4067 19.8384 31.4067 23.4228L31.4641 30.7232Z" fill="white"/>
</svg>
