<svg width="42" height="36" viewBox="0 0 42 36" fill="none" xmlns="http://www.w3.org/2000/svg">
<path fill-rule="evenodd" clip-rule="evenodd" d="M27.8638 30.8571V36C32.5195 34.8417 35.9995 32.224 38.3038 28.1467C40.6081 24.0695 41.7603 18.5329 41.7603 11.5367L41.7603 0H26.1003L26.1003 15.4286L32.8017 15.4286V17.027C32.8017 20.7799 32.3902 23.8031 31.5672 26.0965C30.7442 28.39 29.5098 29.9768 27.8638 30.8571ZM1.76367 30.8571V36C6.41934 34.8417 9.89929 32.224 12.2036 28.1467C14.5079 24.0695 15.6601 18.5329 15.6601 11.5367V0L0.000164032 0L0.000164032 15.4286H6.70148V17.027C6.70148 20.7799 6.29 23.8031 5.46703 26.0965C4.64405 28.39 3.40961 29.9768 1.76367 30.8571Z" fill="#222222"/>
</svg>
